--myboundary
Content-Disposition: form-data; name="output_file.obj"; filename="output_file.obj"
Content-Type: application/object

# https://github.com/mikedh/trimesh
mtllib material.mtl

o geometry_0
usemtl material_0
v 0.10685003 -0.37089437 -0.01284558
v 0.10644609 -0.37100208 -0.01277196
v 0.10662484 -0.37058577 -0.01068908
v 0.10732394 -0.37050861 -0.01267153
v 0.10704583 -0.37072295 -0.01321417
v 0.11324042 -0.36692804 -0.01628506
v 0.10667020 -0.37090319 -0.01321149
v 0.11127704 -0.36998922 -0.03644639
v 0.10810262 -0.37131223 -0.03337508
v 0.12104475 -0.36258775 -0.02715057
v 0.10722798 -0.37202951 -0.03498042
v 0.10646230 -0.37210256 -0.03341746
v 0.10518295 -0.37285537 -0.03545779
v 0.10820675 -0.37181091 -0.04939389
v 0.10759085 -0.37232146 -0.04831767
v 0.11054146 -0.37077439 -0.04771388
v 0.11847728 -0.36520416 -0.05341804
v 0.10726410 -0.37154749 -0.05246109
v 0.10705578 -0.37236640 -0.04937351
v 0.10611641 -0.37289965 -0.04813701
v 0.09497815 -0.36519474 0.02463782
v 0.10038048 -0.36782849 0.01224506
v 0.08592206 -0.37171376 0.02008373
v 0.08590853 -0.36694402 0.03183681
v 0.06572890 -0.37461519 0.03190506
v 0.06279737 -0.37505090 0.03214628
v 0.06436622 -0.37218508 0.03787327
v 0.07104069 -0.37214375 0.03354049
v 0.07066971 -0.37494993 0.02699554
v 0.07639855 -0.37741220 0.01505673
v 0.06437826 -0.37601250 0.02844948
v 0.08561599 -0.37615138 0.00797564
v 0.09871900 -0.37124068 0.00478828
v 0.08840948 -0.37639722 -0.00109488
v 0.08221620 -0.37833685 -0.00112432
v 0.08562440 -0.37867090 -0.02438343
v 0.10275239 -0.37245572 -0.01519525
v 0.09568083 -0.37584627 -0.02936149
v 0.08557820 -0.37867200 -0.01897484
v 0.06982440 -0.38176951 -0.00632000
v 0.06917918 -0.38069320 0.00499004
v 0.06436008 -0.38053519 0.01446581
v 0.05796319 -0.38338894 0.00349188
v 0.08260900 -0.37967271 -0.02293086
v 0.08271074 -0.37978950 -0.02581453
v 0.06430840 -0.38199723 -0.01862091
v 0.05736107 -0.38444287 -0.00500309
v 0.08558017 -0.37928432 -0.02792376
v 0.08970052 -0.37860045 -0.04251283
v 0.08013469 -0.38105249 -0.04272181
v 0.10197389 -0.37400630 -0.05060238
v 0.08641881 -0.37885779 -0.05171478
v 0.08683515 -0.37734562 -0.05748159
v 0.07052433 -0.38310257 -0.04576153
v 0.07057106 -0.38290852 -0.03969592
v 0.06419730 -0.38245258 -0.02832603
v 0.05583870 -0.38526452 -0.04096252
v 0.08081359 -0.37996063 -0.05468160
v 0.07604420 -0.37877643 -0.06244266
v 0.06487948 -0.38276121 -0.05403036
v 0.05621397 -0.38533860 -0.04528922
v 0.10223484 -0.36944818 -0.06533325
v 0.08735681 -0.37058753 -0.07245702
v 0.06568891 -0.37547705 -0.07536447
v 0.06375426 -0.37803137 -0.07057148
v 0.06700951 -0.37779626 -0.07044911
v 0.07405645 -0.37519091 -0.07211196
v 0.06542033 -0.37980872 -0.06529307
v 0.04349005 -0.36093706 0.06402969
v 0.04421663 -0.36133498 0.06309384
v 0.04299247 -0.36113572 0.06379604
v 0.04299593 -0.36087573 0.06419837
v 0.04231423 -0.36102945 0.06413227
v 0.03795969 -0.36333442 0.06104714
v 0.04298830 -0.37326673 0.04339552
v 0.04744750 -0.37238285 0.04354477
v 0.04378033 -0.37389237 0.04155338
v 0.04206824 -0.37409633 0.04157531
v 0.04327476 -0.38308159 0.02108002
v 0.04467273 -0.38332972 0.01952660
v 0.04251832 -0.38359365 0.01951504
v 0.04163253 -0.38318005 0.02131891
v 0.02507085 -0.37825227 0.03469586
v 0.01827723 -0.37829676 0.03485042
v 0.02174884 -0.37190506 0.04940885
v 0.03079689 -0.37212870 0.04760748
v 0.02177858 -0.38155955 0.02599162
v 0.03935671 -0.38385251 0.01957923
v 0.02176332 -0.38455907 0.01670969
v 0.04965478 -0.38497141 -0.00085521
v 0.04426962 -0.38394737 0.01599592
v 0.04628301 -0.38593549 -0.01569742
v 0.04849213 -0.38482180 -0.02455163
v 0.04033804 -0.38442522 0.01512784
v 0.04222775 -0.38532233 -0.02452481
v 0.03767878 -0.38673717 -0.01408350
v 0.03531593 -0.38642097 -0.00086921
v 0.02955341 -0.38694003 -0.00369525
v 0.02925450 -0.38635772 0.00211281
v 0.01434267 -0.38634297 0.00223798
v 0.02187848 -0.38519859 -